# xmcd CD database file
#
# Track frame offsets:
#	150
#	14532
#	28940
#	46396
#	68471
#	82423
#	101738
#	113513
#	132499
#	151622
#	174394
#	192617
#	214003
#	225470
#	245717
#	260681
#	278631
#	291145
#	303238
#
# Disc length: 4049 seconds
#
# Revision: 0
# Processed by: cddbd v1.5.2PL0 Copyright (c) Steve Scherf et al.
# Submitted via: CDex 1.51
#
DISCID=0f0fcf13
DTITLE=Corner House Jazz Band - Blaze Away
DYEAR=2004
DGENRE=Jazz
TTITLE0=East Coast Trot
TTITLE1=I'm Crazy About My Baby
TTITLE2=Harlem Fuss
TTITLE3=Louisiana Fairytale
TTITLE4=South Rampart Street Parade
TTITLE5=Delta Bound
TTITLE6=Sugar
TTITLE7=Blaze Away
TTITLE8=I Don't Want To Set The World On Fire
TTITLE9=Dreaming The Hours Away
TTITLE10=Loosing A Friend
TTITLE11=On The Road To Home Sweet Home
TTITLE12=No Regrets
TTITLE13=Chattanooga Choo Choo
TTITLE14=The Dormouse
TTITLE15=Jump In The Line
TTITLE16=I Need Some Loving
TTITLE17=Nervous Tension
TTITLE18=Interlude
EXTD=YEAR: 2004
EXTT0=
EXTT1=
EXTT2=
EXTT3=
EXTT4=
EXTT5=
EXTT6=
EXTT7=
EXTT8=
EXTT9=
EXTT10=
EXTT11=
EXTT12=
EXTT13=
EXTT14=
EXTT15=
EXTT16=
EXTT17=
EXTT18=
PLAYORDER=
